<?xml version="1.0" standalone="no"?>
<!DOCTYPE svg PUBLIC "-//W3C//DTD SVG 20010904//EN"
 "http://www.w3.org/TR/2001/REC-SVG-20010904/DTD/svg10.dtd">
<svg version="1.0" xmlns="http://www.w3.org/2000/svg"
 width="700.000000pt" height="700.000000pt" viewBox="0 0 700.000000 700.000000"
 preserveAspectRatio="xMidYMid meet">
<metadata>
Created by potrace 1.14, written by Peter Selinger 2001-2017
</metadata>
<g transform="translate(0.000000,700.000000) scale(0.100000,-0.100000)"
fill="#000000" stroke="none">
<path d="M235 6986 c-95 -30 -163 -88 -204 -175 l-26 -56 0 -3255 0 -3255 26
-55 c33 -70 89 -126 159 -159 l55 -26 3255 0 3255 0 55 26 c70 33 126 89 159
159 l26 55 0 3255 0 3255 -26 56 c-33 69 -88 124 -159 158 l-55 26 -3240 2
c-2594 1 -3248 -1 -3280 -11z"/>
</g>
</svg>
